HIERARCHY
ROOT Hips
{
	OFFSET 0.000000 100.481300 0.000000
	CHANNELS 6 Xposition Yposition Zposition Xrotation Yrotation Zrotation
	JOINT Spine
	{
		OFFSET -0.279200 12.230698 -2.892100
		CHANNELS 3 Xrotation Yrotation Zrotation
		JOINT Spine1
		{
			OFFSET -0.325700 14.269203 -3.374200
			CHANNELS 3 Xrotation Yrotation Zrotation
			JOINT Spine2
			{
				OFFSET -0.372300 16.307602 -0.352600
				CHANNELS 3 Xrotation Yrotation Zrotation
				JOINT Neck
				{
					OFFSET -0.418800 17.814194 8.416900
					CHANNELS 3 Xrotation Yrotation Zrotation
					JOINT Head
					{
						OFFSET 0.000000 7.031097 3.806800
						CHANNELS 3 Xrotation Yrotation Zrotation
						JOINT HeadTop_End
						{
							OFFSET 0.000000 24.646606 12.978600
							CHANNELS 3 Xrotation Yrotation Zrotation
							End Site
							{
								OFFSET 0.000000 27.854965 0.000000
							}
						}
					}
				}
				JOINT LeftShoulder
				{
					OFFSET 16.952999 14.495407 -7.737500
					CHANNELS 3 Xrotation Yrotation Zrotation
					JOINT LeftArm
					{
						OFFSET 9.308998 -2.777710 0.208600
						CHANNELS 3 Xrotation Yrotation Zrotation
						JOINT LeftForeArm
						{
							OFFSET 29.972298 0.000000 0.000000
							CHANNELS 3 Xrotation Yrotation Zrotation
							JOINT LeftHand
							{
								OFFSET 26.026505 0.000000 0.000000
								CHANNELS 3 Xrotation Yrotation Zrotation
								JOINT LeftHandThumb1
								{
									OFFSET 12.240501 -7.147949 9.207150
									CHANNELS 3 Xrotation Yrotation Zrotation
									JOINT LeftHandThumb2
									{
										OFFSET 4.138618 -2.389435 2.389433
										CHANNELS 3 Xrotation Yrotation Zrotation
										JOINT LeftHandThumb3
										{
											OFFSET 2.726913 -1.574387 1.574386
											CHANNELS 3 Xrotation Yrotation Zrotation
											JOINT LeftHandThumb4
											{
												OFFSET 3.941010 -2.275345 2.275342
												CHANNELS 3 Xrotation Yrotation Zrotation
												End Site
												{
													OFFSET -0.005798 5.087799 0.009903
												}
											}
										}
									}
								}
								JOINT LeftHandIndex1
								{
									OFFSET 24.424698 -1.985611 5.953459
									CHANNELS 3 Xrotation Yrotation Zrotation
									JOINT LeftHandIndex2
									{
										OFFSET 6.426697 0.000000 0.000000
										CHANNELS 3 Xrotation Yrotation Zrotation
										JOINT LeftHandIndex3
										{
											OFFSET 5.337898 0.000000 0.000000
											CHANNELS 3 Xrotation Yrotation Zrotation
											JOINT LeftHandIndex4
											{
												OFFSET 4.409401 0.000000 0.000000
												CHANNELS 3 Xrotation Yrotation Zrotation
												End Site
												{
													OFFSET 0.000000 4.409363 0.014373
												}
											}
										}
									}
								}
								JOINT LeftHandMiddle1
								{
									OFFSET 23.810104 0.000000 0.000000
									CHANNELS 3 Xrotation Yrotation Zrotation
									JOINT LeftHandMiddle2
									{
										OFFSET 7.176498 0.000000 0.000000
										CHANNELS 3 Xrotation Yrotation Zrotation
										JOINT LeftHandMiddle3
										{
											OFFSET 6.774902 0.000000 0.000000
											CHANNELS 3 Xrotation Yrotation Zrotation
											JOINT LeftHandMiddle4
											{
												OFFSET 5.403328 0.000000 0.000000
												CHANNELS 3 Xrotation Yrotation Zrotation
												End Site
												{
													OFFSET -0.027702 5.403244 0.017414
												}
											}
										}
									}
								}
								JOINT LeftHandRing1
								{
									OFFSET 22.908401 -0.839279 -6.020567
									CHANNELS 3 Xrotation Yrotation Zrotation
									JOINT LeftHandRing2
									{
										OFFSET 6.337502 0.000000 0.000000
										CHANNELS 3 Xrotation Yrotation Zrotation
										JOINT LeftHandRing3
										{
											OFFSET 5.779297 0.000000 0.000000
											CHANNELS 3 Xrotation Yrotation Zrotation
											JOINT LeftHandRing4
											{
												OFFSET 4.965698 0.000000 0.000000
												CHANNELS 3 Xrotation Yrotation Zrotation
												End Site
												{
													OFFSET 0.000000 4.965668 0.016186
												}
											}
										}
									}
								}
								JOINT LeftHandPinky1
								{
									OFFSET 20.037003 -1.530319 -10.950146
									CHANNELS 3 Xrotation Yrotation Zrotation
									JOINT LeftHandPinky2
									{
										OFFSET 5.254700 0.000000 0.000000
										CHANNELS 3 Xrotation Yrotation Zrotation
										JOINT LeftHandPinky3
										{
											OFFSET 4.810204 0.000000 0.000000
											CHANNELS 3 Xrotation Yrotation Zrotation
											JOINT LeftHandPinky4
											{
												OFFSET 3.647202 0.000000 0.000000
												CHANNELS 3 Xrotation Yrotation Zrotation
												End Site
												{
													OFFSET 0.000000 3.647186 0.011889
												}
											}
										}
									}
								}
							}
						}
					}
				}
				JOINT RightShoulder
				{
					OFFSET -15.141001 14.495407 -7.737500
					CHANNELS 3 Xrotation Yrotation Zrotation
					JOINT RightArm
					{
						OFFSET -9.308998 -2.777710 0.208500
						CHANNELS 3 Xrotation Yrotation Zrotation
						JOINT RightForeArm
						{
							OFFSET -29.972300 0.000000 0.000000
							CHANNELS 3 Xrotation Yrotation Zrotation
							JOINT RightHand
							{
								OFFSET -26.026505 0.000000 0.000000
								CHANNELS 3 Xrotation Yrotation Zrotation
								JOINT RightHandThumb1
								{
									OFFSET -12.240601 -7.148026 9.207092
									CHANNELS 3 Xrotation Yrotation Zrotation
									JOINT RightHandThumb2
									{
										OFFSET -4.138618 -2.389435 2.389433
										CHANNELS 3 Xrotation Yrotation Zrotation
										JOINT RightHandThumb3
										{
											OFFSET -2.726974 -1.574417 1.574421
											CHANNELS 3 Xrotation Yrotation Zrotation
											JOINT RightHandThumb4
											{
												OFFSET -3.941010 -2.275345 2.275343
												CHANNELS 3 Xrotation Yrotation Zrotation
												End Site
												{
													OFFSET 0.005814 5.087799 0.009927
												}
											}
										}
									}
								}
								JOINT RightHandIndex1
								{
									OFFSET -24.424698 -1.985657 5.953444
									CHANNELS 3 Xrotation Yrotation Zrotation
									JOINT RightHandIndex2
									{
										OFFSET -6.426697 0.000000 0.000000
										CHANNELS 3 Xrotation Yrotation Zrotation
										JOINT RightHandIndex3
										{
											OFFSET -5.337898 0.000000 0.000000
											CHANNELS 3 Xrotation Yrotation Zrotation
											JOINT RightHandIndex4
											{
												OFFSET -4.409401 0.000000 0.000000
												CHANNELS 3 Xrotation Yrotation Zrotation
												End Site
												{
													OFFSET 0.000000 4.409363 0.014408
												}
											}
										}
									}
								}
								JOINT RightHandMiddle1
								{
									OFFSET -23.810097 0.000000 0.000000
									CHANNELS 3 Xrotation Yrotation Zrotation
									JOINT RightHandMiddle2
									{
										OFFSET -7.176498 0.000000 0.000000
										CHANNELS 3 Xrotation Yrotation Zrotation
										JOINT RightHandMiddle3
										{
											OFFSET -6.774902 0.000000 0.000000
											CHANNELS 3 Xrotation Yrotation Zrotation
											JOINT RightHandMiddle4
											{
												OFFSET -5.403328 0.000000 0.000000
												CHANNELS 3 Xrotation Yrotation Zrotation
												End Site
												{
													OFFSET 0.027702 5.403244 0.017457
												}
											}
										}
									}
								}
								JOINT RightHandRing1
								{
									OFFSET -22.908302 -0.839325 -6.020576
									CHANNELS 3 Xrotation Yrotation Zrotation
									JOINT RightHandRing2
									{
										OFFSET -6.337502 0.000000 0.000000
										CHANNELS 3 Xrotation Yrotation Zrotation
										JOINT RightHandRing3
										{
											OFFSET -5.779297 0.000000 0.000000
											CHANNELS 3 Xrotation Yrotation Zrotation
											JOINT RightHandRing4
											{
												OFFSET -4.965698 0.000000 0.000000
												CHANNELS 3 Xrotation Yrotation Zrotation
												End Site
												{
													OFFSET 0.000000 4.965668 0.016226
												}
											}
										}
									}
								}
								JOINT RightHandPinky1
								{
									OFFSET -20.037003 -1.530334 -10.950259
									CHANNELS 3 Xrotation Yrotation Zrotation
									JOINT RightHandPinky2
									{
										OFFSET -5.254700 0.000000 0.000000
										CHANNELS 3 Xrotation Yrotation Zrotation
										JOINT RightHandPinky3
										{
											OFFSET -4.810204 0.000000 0.000000
											CHANNELS 3 Xrotation Yrotation Zrotation
											JOINT RightHandPinky4
											{
												OFFSET -3.647202 0.000000 0.000000
												CHANNELS 3 Xrotation Yrotation Zrotation
												End Site
												{
													OFFSET 0.000000 3.647186 0.011917
												}
											}
										}
									}
								}
							}
						}
					}
				}
			}
		}
	}
	JOINT LeftUpLeg
	{
		OFFSET 15.427100 -6.655098 0.678600
		CHANNELS 3 Xrotation Yrotation Zrotation
		JOINT LeftLeg
		{
			OFFSET 4.081073 -39.591068 13.024000
			CHANNELS 3 Xrotation Yrotation Zrotation
			JOINT LeftFoot
			{
				OFFSET -4.081074 -37.707932 -15.979700
				CHANNELS 3 Xrotation Yrotation Zrotation
				JOINT LeftToeBase
				{
					OFFSET 5.346399 -15.068900 20.645000
					CHANNELS 3 Xrotation Yrotation Zrotation
					JOINT LeftToe_End
					{
						OFFSET 2.754700 0.931300 11.300900
						CHANNELS 3 Xrotation Yrotation Zrotation
						End Site
						{
							OFFSET 0.000000 11.669021 0.000000
						}
					}
				}
			}
		}
	}
	JOINT RightUpLeg
	{
		OFFSET -15.569500 -6.655098 0.678600
		CHANNELS 3 Xrotation Yrotation Zrotation
		JOINT RightLeg
		{
			OFFSET -4.081825 -39.591045 13.023800
			CHANNELS 3 Xrotation Yrotation Zrotation
			JOINT RightFoot
			{
				OFFSET 4.081824 -37.707954 -15.979600
				CHANNELS 3 Xrotation Yrotation Zrotation
				JOINT RightToeBase
				{
					OFFSET -5.346400 -15.068900 20.645000
					CHANNELS 3 Xrotation Yrotation Zrotation
					JOINT RightToe_End
					{
						OFFSET -2.754700 0.931300 11.300900
						CHANNELS 3 Xrotation Yrotation Zrotation
						End Site
						{
							OFFSET 0.000000 11.669021 0.000000
						}
					}
				}
			}
		}
	}
}
MOTION
Frames: 4
Frame Time: 0.033333
0.025255 12.166168 4.128960 -50.059471 -1.961521 -1.660338 10.343766 1.131892 0.077788 20.706425 0.176896 -1.441610 20.706422 0.176897 -1.441608 -5.222676 -2.256396 3.533925 -5.385024 -0.057284 0.626050 0.000001 0.000000 0.000000 -1.195519 4.294089 -5.461324 2.425239 -32.247656 -57.970213 0.521485 -77.342590 0.603497 74.035706 -9.491847 18.855004 -3.328332 7.085365 1.023562 4.048577 10.195692 2.377000 0.000011 -0.000011 0.000001 0.000000 0.000001 -0.000000 -5.297303 -2.051112 -39.767291 0.136571 0.898902 -25.992628 -0.000003 0.000001 0.000004 -0.000003 -0.000001 0.000002 -1.925612 3.981117 -28.849893 -0.562021 -2.241637 -23.090923 0.000001 -0.000007 0.000013 0.000003 0.000001 0.000001 0.295159 8.999302 -20.319710 -0.772810 -3.677453 -27.573556 -0.000004 0.000006 -0.000004 -0.000000 -0.000001 0.000002 0.694830 12.270875 -19.078646 -0.484640 -5.044557 -11.247477 -0.000001 -0.000002 -0.000000 -0.000001 0.000000 -0.000001 -7.213418 -0.065338 18.844079 21.285596 18.798760 53.277603 -3.866201 89.488251 3.919114 71.148236 -3.323967 -26.671335 -2.027901 -6.975268 -2.360560 2.089645 -6.080027 -2.749588 0.000011 0.000022 -0.000010 0.000001 0.000001 -0.000001 0.259238 -3.723108 18.735334 0.131166 -1.149298 17.690154 0.000000 -0.000001 0.000001 -0.000000 0.000000 -0.000001 0.509205 -8.493229 15.571962 -0.221743 0.910565 8.225121 0.000000 0.000005 -0.000001 -0.000000 -0.000000 -0.000000 2.045850 -9.444141 11.365180 -0.546286 3.375590 18.806117 0.000001 0.000000 -0.000001 0.000000 -0.000001 -0.000001 -2.699836 -19.111339 12.592994 -1.078229 7.469298 21.982510 0.000000 -0.000001 0.000001 0.000000 0.000001 -0.000000 -64.070070 51.083005 11.412550 15.415783 1.627651 0.002536 31.474386 7.508068 17.956864 0.003012 -0.026198 0.062603 0.000002 -0.000001 -0.000000 -53.299805 -17.945441 -0.331177 11.093693 7.272687 3.847945 13.351276 -4.774857 -3.134002 -0.012193 -0.109717 0.262091 0.000001 0.000000 -0.000000 
0.025308 12.166611 4.126122 -50.017861 -1.962658 -1.660752 10.347177 1.132213 0.076943 20.713174 0.176888 -1.441132 20.713179 0.176888 -1.441132 -4.594951 -2.137561 3.504547 -5.192526 0.205672 0.540503 0.000000 -0.000000 -0.000000 -1.146454 4.032900 -5.415543 2.411394 -31.942373 -58.040188 0.525037 -77.495511 0.608082 74.108966 -9.455032 18.857010 -3.328339 7.085391 1.023558 4.048592 10.195685 2.377010 0.000011 -0.000010 0.000001 -0.000000 -0.000002 0.000000 -5.297310 -2.051102 -39.767298 0.136577 0.898903 -25.992625 -0.000006 0.000003 0.000002 -0.000002 -0.000001 0.000000 -1.925610 3.981131 -28.849899 -0.562019 -2.241636 -23.090928 0.000004 -0.000008 0.000010 -0.000001 -0.000001 0.000001 0.295158 8.999300 -20.319714 -0.772803 -3.677420 -27.573561 -0.000005 0.000003 -0.000004 -0.000001 0.000000 0.000002 0.694830 12.270881 -19.078653 -0.484645 -5.044555 -11.247473 -0.000001 0.000001 0.000001 -0.000000 0.000001 0.000001 -7.086851 0.457513 18.807264 21.692297 19.045694 52.445399 -5.684046 89.660487 5.732637 70.343483 -4.218163 -27.046878 -2.339993 -6.970498 -3.113161 2.118575 -6.136134 -2.758753 0.000010 0.000022 -0.000009 0.000001 0.000000 0.000001 0.264626 -3.747023 18.702301 0.133181 -1.152864 17.788599 0.000000 -0.000001 -0.000001 0.000000 -0.000000 -0.000001 0.508452 -8.500497 15.547085 -0.221692 0.910200 8.223031 0.000000 0.000004 -0.000001 0.000000 0.000001 0.000001 2.023927 -9.390922 11.256381 -0.544485 3.372373 18.776663 0.000001 -0.000001 -0.000000 -0.000000 -0.000001 -0.000001 -2.721808 -19.134136 12.486575 -1.065404 7.454879 21.886624 0.000000 0.000000 -0.000002 0.000000 0.000001 -0.000002 -64.108934 51.103885 11.412339 15.398890 1.626858 0.003241 31.482623 7.492628 17.971085 0.002971 -0.026195 0.062605 -0.000000 -0.000001 0.000001 -53.337337 -17.967070 -0.330052 11.081548 7.273823 3.848338 13.361799 -4.762285 -3.135689 -0.012186 -0.109709 0.262084 -0.000001 -0.000000 0.000000 
0.025435 12.168243 4.118637 -49.899829 -1.966137 -1.661719 10.356453 1.133180 0.074533 20.731721 0.176884 -1.439921 20.731726 0.176885 -1.439920 -3.962189 -2.009486 3.540517 -4.976426 0.577434 0.308595 0.000000 0.000000 -0.000000 -1.101996 3.742961 -5.451331 2.438130 -31.580701 -57.995840 0.539446 -77.770849 0.624043 74.198346 -9.393703 18.831672 -3.328334 7.085329 1.023558 4.048577 10.195697 2.377006 0.000011 -0.000012 0.000001 0.000001 0.000000 -0.000000 -5.297301 -2.051120 -39.767274 0.136573 0.898887 -25.992611 -0.000005 0.000001 0.000002 -0.000001 -0.000001 0.000002 -1.925612 3.981096 -28.849882 -0.562017 -2.241637 -23.090911 0.000001 -0.000006 0.000009 0.000001 0.000001 0.000001 0.295160 8.999286 -20.319700 -0.772810 -3.677445 -27.573539 -0.000004 0.000005 -0.000004 -0.000002 -0.000000 0.000001 0.694834 12.270861 -19.078646 -0.484643 -5.044569 -11.247482 -0.000001 0.000000 0.000000 -0.000001 0.000002 0.000001 -6.960798 0.988992 18.827338 22.227819 19.403090 51.303013 -19.491748 89.901791 19.533904 69.355312 -5.307258 -27.510656 -2.651615 -7.018449 -3.950265 2.162843 -6.222033 -2.772666 0.000010 0.000022 -0.000010 -0.000001 0.000000 0.000000 0.248828 -3.757578 18.497841 0.135713 -1.157329 17.912255 0.000001 0.000000 -0.000000 0.000000 -0.000001 -0.000000 0.497177 -8.525201 15.386803 -0.221410 0.908813 8.207934 0.000000 0.000006 -0.000001 -0.000000 0.000001 0.000000 1.999334 -9.401737 11.008121 -0.545118 3.373210 18.791204 0.000001 0.000000 -0.000000 -0.000000 -0.000001 -0.000001 -2.753260 -19.251773 12.269131 -1.051837 7.439958 21.790276 -0.000001 -0.000001 0.000000 -0.000000 0.000001 0.000000 -64.219802 51.161228 11.412059 15.353032 1.624833 0.005266 31.504726 7.450278 18.010014 0.002991 -0.026213 0.062611 -0.000001 0.000001 -0.000000 -53.444253 -18.026553 -0.326797 11.048324 7.277234 3.849515 13.390927 -4.727651 -3.140608 -0.012184 -0.109715 0.262092 0.000001 0.000000 0.000000 
0.025628 12.170769 4.107513 -49.723016 -1.971369 -1.663074 10.371915 1.134608 0.070844 20.762544 0.176851 -1.438176 20.762559 0.176851 -1.438176 -3.297037 -1.890001 3.624007 -4.830367 0.942911 -0.015373 -0.000000 -0.000000 0.000000 -1.069137 3.386642 -5.627085 2.565208 -31.113079 -57.761216 0.567169 -78.214743 0.653426 74.292883 -9.301031 18.741718 -3.328336 7.085370 1.023557 4.048588 10.195697 2.377004 0.000011 -0.000011 0.000001 -0.000000 -0.000000 0.000001 -5.297305 -2.051103 -39.767281 0.136587 0.898909 -25.992628 -0.000005 0.000001 0.000002 0.000002 -0.000000 0.000002 -1.925611 3.981109 -28.849886 -0.562017 -2.241634 -23.090920 -0.000001 -0.000006 0.000013 0.000003 -0.000001 0.000001 0.295160 8.999299 -20.319700 -0.772810 -3.677459 -27.573542 -0.000005 0.000003 -0.000006 -0.000001 -0.000001 0.000001 0.694834 12.270880 -19.078644 -0.484642 -5.044559 -11.247471 0.000001 -0.000001 0.000001 -0.000001 0.000001 0.000002 -6.830891 1.518633 18.884677 22.923604 19.911497 49.810780 8.854819 90.205953 -8.817672 68.135672 -6.624488 -28.090698 -2.960690 -7.090577 -4.881139 2.206382 -6.306528 -2.786202 0.000009 0.000022 -0.000011 -0.000001 0.000000 0.000002 0.192458 -3.784569 17.790621 0.134037 -1.154501 17.834162 0.000000 0.000000 -0.000000 -0.000000 -0.000001 -0.000000 0.423927 -8.506922 14.782459 -0.220417 0.904882 8.151487 -0.000000 0.000005 -0.000000 0.000000 0.000001 0.000000 1.993903 -9.592926 10.635730 -0.548897 3.379357 18.861224 0.000001 0.000000 0.000000 -0.000000 -0.000001 -0.000001 -2.842777 -19.453758 11.768114 -1.033065 7.419296 21.657627 0.000000 -0.000001 0.000002 0.000000 -0.000000 -0.000000 -64.385598 51.247121 11.411478 15.284184 1.621736 0.008219 31.537937 7.386876 18.068115 0.002980 -0.026225 0.062608 0.000003 0.000001 -0.000000 -53.604332 -18.115852 -0.321912 10.998472 7.282387 3.851230 13.434530 -4.675574 -3.147981 -0.012203 -0.109729 0.262097 0.000001 0.000001 -0.000000 
